<?xml version="1.0" encoding="utf-8"?>
<!-- Generator: Adobe Illustrator 22.0.1, SVG Export Plug-In . SVG Version: 6.00 Build 0)  -->
<svg version="1.1" id="Ebene_1" xmlns="http://www.w3.org/2000/svg" xmlns:xlink="http://www.w3.org/1999/xlink" x="0px" y="0px"
	 viewBox="0 0 742.7 165.2" style="enable-background:new 0 0 742.7 165.2;" xml:space="preserve">
<style type="text/css">
	.st0{clip-path:url(#SVGID_2_);fill-rule:evenodd;clip-rule:evenodd;fill:#CC0000;}
	.st1{clip-path:url(#SVGID_2_);fill:none;stroke:#CC0000;stroke-width:3.535395e-02;stroke-linejoin:round;stroke-miterlimit:10;}
	.st2{clip-path:url(#SVGID_2_);fill-rule:evenodd;clip-rule:evenodd;fill:#4D4D4D;}
	.st3{clip-path:url(#SVGID_2_);fill:none;stroke:#4D4D4D;stroke-width:3.535395e-02;stroke-linejoin:round;stroke-miterlimit:10;}
</style>
<g>
	<defs>
		<rect id="SVGID_1_" width="742.7" height="165.2"/>
	</defs>
	<clipPath id="SVGID_2_">
		<use xlink:href="#SVGID_1_"  style="overflow:visible;"/>
	</clipPath>
	<path class="st0" d="M0.1,0.8h22.1v19.6H0.1V0.8z M0.1,37.7h22.1v95.2H0.1V37.7z"/>
	<path class="st1" d="M0.1,0.8h22.1v19.6H0.1V0.8z M0.1,37.7h22.1v95.2H0.1V37.7z"/>
	<polygon class="st0" points="54.3,9.8 76.4,9.8 76.4,40.8 109.5,40.8 109.5,59.7 76.4,59.7 76.4,103.2 76.4,105.7 76.8,108.4 
		77.7,110.6 79.1,112.6 81.1,114.7 83.8,116 87.4,116.9 91.7,117.1 94.6,117.1 98.4,116.7 102.7,116.2 106.8,115.3 110.4,114.7 
		110.4,133.8 104.5,134.7 99.8,135.1 95.3,135.6 91.2,135.8 86.7,136 80.7,135.8 75.3,135.1 70.5,134 66.2,132.2 62.6,130 59.7,127 
		57.2,123.4 55.7,119.2 54.5,114.2 54.3,108.4 54.3,59.7 37.2,59.7 37.2,40.8 54.3,40.8 	"/>
	<polygon class="st1" points="54.3,9.8 76.4,9.8 76.4,40.8 109.5,40.8 109.5,59.7 76.4,59.7 76.4,103.2 76.4,105.7 76.8,108.4 
		77.7,110.6 79.1,112.6 81.1,114.7 83.8,116 87.4,116.9 91.7,117.1 94.6,117.1 98.4,116.7 102.7,116.2 106.8,115.3 110.4,114.7 
		110.4,133.8 104.5,134.7 99.8,135.1 95.3,135.6 91.2,135.8 86.7,136 80.7,135.8 75.3,135.1 70.5,134 66.2,132.2 62.6,130 59.7,127 
		57.2,123.4 55.7,119.2 54.5,114.2 54.3,108.4 54.3,59.7 37.2,59.7 37.2,40.8 54.3,40.8 	"/>
	<path class="st0" d="M207.6,3.9h21.8v129h-21.6v-12.4l-1.8,1.8l-2.3,2.2l-2.9,2.3l-3.6,2.2l-4.1,2l-4.7,2l-5.4,1.6l-6.1,0.9
		l-6.7,0.5l-6.7-0.5l-6.3-1.1l-6.3-2l-5.6-2.7l-5.4-3.4l-5-4l-4.3-4.7l-3.6-5.4l-2.9-5.9l-2.3-6.8l-1.3-7.2l-0.5-7.6l0.5-7.9
		l1.3-7.2l2.5-6.8l3.2-6.1l4-5.6l4.7-4.7l5.6-4.3l6.3-3.1l7-2.5l7.7-1.6l8.3-0.4l6.3,0.2l5.6,0.9l5.2,1.1l4.3,1.8l4.3,1.8l3.6,2.2
		l3.6,2.5l3.6,2.5V3.9z M175.9,53.2l-4.9,0.5l-5,0.9l-4.7,1.6l-4.5,2.3l-4,2.9l-3.4,3.4l-2.9,4.3l-2.2,4.7l-1.4,5.6l-0.4,6.1
		l0.4,5.9l1.4,5.4l2,4.7l2.9,4.3l3.4,3.4l3.8,2.9l4.3,2.3l4.7,1.8l4.7,0.9l5.2,0.2l6.1-0.5l5.4-1.1l5-1.8l4.3-2.3l4.1-2.5l3.8-2.7
		l3.8-2.9V66.3l-3.1-2.5l-3.4-2.5l-3.8-2.5l-4.3-2.3l-5-1.8l-5.9-1.1L175.9,53.2z"/>
	<path class="st1" d="M207.6,3.9h21.8v129h-21.6v-12.4l-1.8,1.8l-2.3,2.2l-2.9,2.3l-3.6,2.2l-4.1,2l-4.7,2l-5.4,1.6l-6.1,0.9
		l-6.7,0.5l-6.7-0.5l-6.3-1.1l-6.3-2l-5.6-2.7l-5.4-3.4l-5-4l-4.3-4.7l-3.6-5.4l-2.9-5.9l-2.3-6.8l-1.3-7.2l-0.5-7.6l0.5-7.9
		l1.3-7.2l2.5-6.8l3.2-6.1l4-5.6l4.7-4.7l5.6-4.3l6.3-3.1l7-2.5l7.7-1.6l8.3-0.4l6.3,0.2l5.6,0.9l5.2,1.1l4.3,1.8l4.3,1.8l3.6,2.2
		l3.6,2.5l3.6,2.5V3.9z M175.9,53.2l-4.9,0.5l-5,0.9l-4.7,1.6l-4.5,2.3l-4,2.9l-3.4,3.4l-2.9,4.3l-2.2,4.7l-1.4,5.6l-0.4,6.1
		l0.4,5.9l1.4,5.4l2,4.7l2.9,4.3l3.4,3.4l3.8,2.9l4.3,2.3l4.7,1.8l4.7,0.9l5.2,0.2l6.1-0.5l5.4-1.1l5-1.8l4.3-2.3l4.1-2.5l3.8-2.7
		l3.8-2.9V66.3l-3.1-2.5l-3.4-2.5l-3.8-2.5l-4.3-2.3l-5-1.8l-5.9-1.1L175.9,53.2z"/>
	<path class="st2" d="M301.2,34.5l8.6,0.4l7.9,1.3l7,2.3l6.3,3.1l5.4,3.8l5,4.5l3.8,5.4l3.4,5.9l2.5,6.7l1.8,7.2l1.1,7.7l0.4,8.3
		h-83.5l0.2,1.8l0.4,2.2l0.7,2.7l1.1,2.7l1.3,2.9l2,3.2l2.5,2.7l2.9,2.7l3.8,2.2l4.5,1.8l5.4,1.4l6.3,0.7l5.6-0.4l5.2-0.9l4.3-1.8
		l3.8-2.3l3.1-2.5l2.5-2.9l1.8-3.1h24.1l-0.7,2l-0.9,2.5l-1.6,2.9l-1.8,3.1l-2.5,3.4l-3.2,3.2l-3.6,3.1l-4.1,3.2l-5,2.7l-5.6,2.3
		l-6.1,1.8l-7,1.1l-7.9,0.5l-8.8-0.5l-8.3-1.6l-7.4-2.5l-6.8-3.4l-5.8-4.1l-5.2-5l-4.3-5.6l-3.4-6.3l-2.5-7l-1.4-7.4l-0.4-7.9
		l0.2-6.5l1.1-6.5l1.8-6.1l2.7-5.9l3.4-5.4l3.8-5l4.9-4.3l5.4-3.8l6.3-2.9l7-2.3l7.6-1.3L301.2,34.5z M300.8,52.1l-3.8,0.2l-4.1,0.7
		l-3.8,0.9l-3.8,1.6l-3.6,2l-3.2,2.9l-2.9,3.8l-2.3,4.5l-1.8,5.6h59.4l-1.6-5.6l-2.5-4.7l-2.9-3.8l-3.6-2.9l-4-2.2l-4.7-1.6
		l-5.2-0.9L300.8,52.1z"/>
	<path class="st3" d="M301.2,34.5l8.6,0.4l7.9,1.3l7,2.3l6.3,3.1l5.4,3.8l5,4.5l3.8,5.4l3.4,5.9l2.5,6.7l1.8,7.2l1.1,7.7l0.4,8.3
		h-83.5l0.2,1.8l0.4,2.2l0.7,2.7l1.1,2.7l1.3,2.9l2,3.2l2.5,2.7l2.9,2.7l3.8,2.2l4.5,1.8l5.4,1.4l6.3,0.7l5.6-0.4l5.2-0.9l4.3-1.8
		l3.8-2.3l3.1-2.5l2.5-2.9l1.8-3.1h24.1l-0.7,2l-0.9,2.5l-1.6,2.9l-1.8,3.1l-2.5,3.4l-3.2,3.2l-3.6,3.1l-4.1,3.2l-5,2.7l-5.6,2.3
		l-6.1,1.8l-7,1.1l-7.9,0.5l-8.8-0.5l-8.3-1.6l-7.4-2.5l-6.8-3.4l-5.8-4.1l-5.2-5l-4.3-5.6l-3.4-6.3l-2.5-7l-1.4-7.4l-0.4-7.9
		l0.2-6.5l1.1-6.5l1.8-6.1l2.7-5.9l3.4-5.4l3.8-5l4.9-4.3l5.4-3.8l6.3-2.9l7-2.3l7.6-1.3L301.2,34.5z M300.8,52.1l-3.8,0.2l-4.1,0.7
		l-3.8,0.9l-3.8,1.6l-3.6,2l-3.2,2.9l-2.9,3.8l-2.3,4.5l-1.8,5.6h59.4l-1.6-5.6l-2.5-4.7l-2.9-3.8l-3.6-2.9l-4-2.2l-4.7-1.6
		l-5.2-0.9L300.8,52.1z"/>
	<polygon class="st2" points="413.5,34.3 417.1,34.3 421.4,34.8 426.1,35.4 431.3,36.3 436.7,38.1 442.1,40.2 447.5,43.1 
		452.7,46.7 457.9,51.2 462.4,56.8 444.1,66.9 442.8,65.1 441.2,63.1 439,61.1 436.3,58.8 433.1,56.8 429.3,54.8 424.8,53.4 
		419.4,52.3 413.1,52.1 407.7,52.3 403,53 399.4,54.3 396.4,55.7 394.4,57.5 392.8,59.5 392.2,61.5 391.9,63.6 392.2,66 393.5,68.1 
		395.5,69.7 398,71 401.4,71.9 405.2,72.6 409.5,73.2 414.2,73.9 420.1,74.8 425.9,75.7 431.5,76.6 436.9,77.7 441.9,79.1 
		446.6,80.9 450.9,82.9 454.7,85.2 457.9,88.1 460.4,91.5 462.4,95.3 463.5,99.8 463.9,104.8 463.5,110.4 462.2,115.3 459.9,119.6 
		457.2,123.2 453.8,126.4 450,128.8 445.9,130.9 441.7,132.4 437.2,133.8 432.7,134.7 428.2,135.4 423.9,135.8 420.1,136 416.5,136 
		408.1,135.6 400.7,134.7 394.2,133.3 388.6,131.5 383.8,129.3 379.6,126.8 375.9,124.3 372.8,121.4 370.1,118.5 367.6,115.6 
		365.1,112.9 383.8,102.1 387.4,106.8 391.7,110.6 396.4,113.5 401.6,115.8 407,117.1 412.6,118 418.5,118.3 423,118 427,117.6 
		430.9,116.7 434.2,115.6 436.9,113.8 439,111.7 440.5,109.3 441,106.3 440.8,104.3 440.1,102.5 438.7,100.9 436.7,99.8 433.8,98.9 
		430,98 425.2,97.1 419.4,96.2 412.2,95.3 403.2,93.7 395.3,92.2 388.8,89.9 383.4,87.7 378.9,85 375.3,82.3 372.8,79.1 370.8,75.7 
		369.6,72.1 369,68.5 368.7,64.7 369,62.2 369.4,59.3 370.3,56.4 371.7,53.4 373.5,50.3 375.9,47.1 378.9,44.2 382.7,41.5 
		387.2,39.3 392.4,37.2 398.5,35.7 405.7,34.5 	"/>
	<polygon class="st3" points="413.5,34.3 417.1,34.3 421.4,34.8 426.1,35.4 431.3,36.3 436.7,38.1 442.1,40.2 447.5,43.1 
		452.7,46.7 457.9,51.2 462.4,56.8 444.1,66.9 442.8,65.1 441.2,63.1 439,61.1 436.3,58.8 433.1,56.8 429.3,54.8 424.8,53.4 
		419.4,52.3 413.1,52.1 407.7,52.3 403,53 399.4,54.3 396.4,55.7 394.4,57.5 392.8,59.5 392.2,61.5 391.9,63.6 392.2,66 393.5,68.1 
		395.5,69.7 398,71 401.4,71.9 405.2,72.6 409.5,73.2 414.2,73.9 420.1,74.8 425.9,75.7 431.5,76.6 436.9,77.7 441.9,79.1 
		446.6,80.9 450.9,82.9 454.7,85.2 457.9,88.1 460.4,91.5 462.4,95.3 463.5,99.8 463.9,104.8 463.5,110.4 462.2,115.3 459.9,119.6 
		457.2,123.2 453.8,126.4 450,128.8 445.9,130.9 441.7,132.4 437.2,133.8 432.7,134.7 428.2,135.4 423.9,135.8 420.1,136 416.5,136 
		408.1,135.6 400.7,134.7 394.2,133.3 388.6,131.5 383.8,129.3 379.6,126.8 375.9,124.3 372.8,121.4 370.1,118.5 367.6,115.6 
		365.1,112.9 383.8,102.1 387.4,106.8 391.7,110.6 396.4,113.5 401.6,115.8 407,117.1 412.6,118 418.5,118.3 423,118 427,117.6 
		430.9,116.7 434.2,115.6 436.9,113.8 439,111.7 440.5,109.3 441,106.3 440.8,104.3 440.1,102.5 438.7,100.9 436.7,99.8 433.8,98.9 
		430,98 425.2,97.1 419.4,96.2 412.2,95.3 403.2,93.7 395.3,92.2 388.8,89.9 383.4,87.7 378.9,85 375.3,82.3 372.8,79.1 370.8,75.7 
		369.6,72.1 369,68.5 368.7,64.7 369,62.2 369.4,59.3 370.3,56.4 371.7,53.4 373.5,50.3 375.9,47.1 378.9,44.2 382.7,41.5 
		387.2,39.3 392.4,37.2 398.5,35.7 405.7,34.5 	"/>
	<rect x="482.4" y="37.7" class="st2" width="21.8" height="95.2"/>
	<rect x="482.4" y="37.7" class="st3" width="21.8" height="95.2"/>
	<path class="st2" d="M629.2,33h3.4v20l-2.3-0.7l-2.9-0.7h-2.7l-2.7,0.2l-2.5,0.9l-2,0.7l1.1,1.6l1.1,2.5l1.1,3.1l0.9,4.1l0.2,4.5
		l-0.4,6.1l-1.4,5.4l-2.3,5l-2.9,4.3l-3.4,3.6l-4.3,2.9l-4.7,2.5l-5.2,2l-5.4,1.6l-5.9,0.9l-6.1,0.7l-6.3,0.2l-6.3-0.2l-5.4-0.7
		l-4.7-0.9l-3.6-1.4l-2,1.6l-1.8,1.6l-1.6,2.2l-0.7,2.3l0.2,1.1l0.2,1.1l0.9,0.7l1.3,0.9l1.8,0.7l2.7,0.5l3.8,0.5l4.5,0.2h5.8H599
		l6.7,0.5l6.1,0.9l5.4,1.4l4.7,1.8l3.8,2.2l2.9,2.9l2.3,3.4l1.4,4.1l0.4,4.7l-0.4,4.9l-1.8,4.3l-2.5,3.8l-3.6,3.4l-4.3,2.9l-5,2.5
		l-5.4,2.3l-5.9,1.6l-6.3,1.4l-6.5,0.9l-6.7,0.7l-6.7,0.5h-6.8h-7l-7-0.5l-6.5-0.7l-6.1-1.1l-5.6-1.4l-5-1.8l-4.3-2.3l-3.4-2.7
		l-2.5-2.9l-1.8-3.6l-0.5-4l0.5-3.4l0.9-2.9l1.6-2.3l2-1.8l2.5-1.4l2.7-0.9l2.9-0.9l3.1-0.7l2.9-0.7v-0.2l-3.4-0.7l-2.9-0.9
		l-2.7-1.6l-2.3-2l-1.6-2.5l-1.1-3.4l-0.4-3.6l0.7-4l1.4-3.6l2.3-3.1l2.7-2.7l3.1-2.2l3.2-1.4l3.4-0.9v-0.5l-4.7-3.1l-4-3.8
		l-3.2-4.3l-2-4.7l-1.4-5.4L527,69l0.4-6.1l1.4-5.4l2-4.5l2.7-4.1l3.4-3.6l3.8-2.9l4.3-2.3l4.7-2l4.9-1.4l5.2-1.1l5.4-0.7l5.4-0.4
		h5.4l6.8,0.2l6.1,0.7l5.2,1.1l4.5,1.4l4,1.6l3.4,1.8l3.1,1.8l1.8-2l2.7-2.3l3.2-2l3.6-2l4-1.4L629.2,33z M574.2,50.7l-4.1,0.2
		l-4,0.4l-4.1,0.9l-3.6,1.6l-3.2,1.8l-2.7,2.5l-2.3,3.2l-1.3,3.6l-0.5,4.5l0.5,4.1l1.1,3.6L552,80l2.3,2.3l2.7,2l3.2,1.3l3.4,1.1
		l3.4,0.7l3.6,0.5h3.6h4.1l4-0.7l3.8-0.9l3.8-1.6l3.4-2l2.9-2.5l2.3-2.9l1.6-3.8l0.4-4.3l-0.4-4.1l-1.1-3.4l-1.8-2.7l-2.5-2.5
		l-2.9-2l-3.2-1.4l-3.4-1.1l-3.6-0.7l-3.8-0.4L574.2,50.7z M593.8,134H588h-7.4H558l-2.3,0.2l-2.5,0.2l-2.5,0.7l-2,0.9l-1.8,1.1
		l-1.1,1.6l-0.4,2.3l0.4,2.5l1.3,2l2.5,1.6l3.1,1.1l3.8,0.7l4.7,0.5l5.4,0.2h6.3h5.6l5.9-0.2l5.4-0.5l5-0.7l4.5-0.9l3.8-1.4l2.9-1.6
		l1.8-2l0.7-2.3l-0.2-2l-0.4-1.4l-1.1-1.1l-2-0.7l-2.5-0.7l-3.8-0.2H593.8z"/>
	<path class="st3" d="M629.2,33h3.4v20l-2.3-0.7l-2.9-0.7h-2.7l-2.7,0.2l-2.5,0.9l-2,0.7l1.1,1.6l1.1,2.5l1.1,3.1l0.9,4.1l0.2,4.5
		l-0.4,6.1l-1.4,5.4l-2.3,5l-2.9,4.3l-3.4,3.6l-4.3,2.9l-4.7,2.5l-5.2,2l-5.4,1.6l-5.9,0.9l-6.1,0.7l-6.3,0.2l-6.3-0.2l-5.4-0.7
		l-4.7-0.9l-3.6-1.4l-2,1.6l-1.8,1.6l-1.6,2.2l-0.7,2.3l0.2,1.1l0.2,1.1l0.9,0.7l1.3,0.9l1.8,0.7l2.7,0.5l3.8,0.5l4.5,0.2h5.8H599
		l6.7,0.5l6.1,0.9l5.4,1.4l4.7,1.8l3.8,2.2l2.9,2.9l2.3,3.4l1.4,4.1l0.4,4.7l-0.4,4.9l-1.8,4.3l-2.5,3.8l-3.6,3.4l-4.3,2.9l-5,2.5
		l-5.4,2.3l-5.9,1.6l-6.3,1.4l-6.5,0.9l-6.7,0.7l-6.7,0.5h-6.8h-7l-7-0.5l-6.5-0.7l-6.1-1.1l-5.6-1.4l-5-1.8l-4.3-2.3l-3.4-2.7
		l-2.5-2.9l-1.8-3.6l-0.5-4l0.5-3.4l0.9-2.9l1.6-2.3l2-1.8l2.5-1.4l2.7-0.9l2.9-0.9l3.1-0.7l2.9-0.7v-0.2l-3.4-0.7l-2.9-0.9
		l-2.7-1.6l-2.3-2l-1.6-2.5l-1.1-3.4l-0.4-3.6l0.7-4l1.4-3.6l2.3-3.1l2.7-2.7l3.1-2.2l3.2-1.4l3.4-0.9v-0.5l-4.7-3.1l-4-3.8
		l-3.2-4.3l-2-4.7l-1.4-5.4L527,69l0.4-6.1l1.4-5.4l2-4.5l2.7-4.1l3.4-3.6l3.8-2.9l4.3-2.3l4.7-2l4.9-1.4l5.2-1.1l5.4-0.7l5.4-0.4
		h5.4l6.8,0.2l6.1,0.7l5.2,1.1l4.5,1.4l4,1.6l3.4,1.8l3.1,1.8l1.8-2l2.7-2.3l3.2-2l3.6-2l4-1.4L629.2,33z M574.2,50.7l-4.1,0.2
		l-4,0.4l-4.1,0.9l-3.6,1.6l-3.2,1.8l-2.7,2.5l-2.3,3.2l-1.3,3.6l-0.5,4.5l0.5,4.1l1.1,3.6L552,80l2.3,2.3l2.7,2l3.2,1.3l3.4,1.1
		l3.4,0.7l3.6,0.5h3.6h4.1l4-0.7l3.8-0.9l3.8-1.6l3.4-2l2.9-2.5l2.3-2.9l1.6-3.8l0.4-4.3l-0.4-4.1l-1.1-3.4l-1.8-2.7l-2.5-2.5
		l-2.9-2l-3.2-1.4l-3.4-1.1l-3.6-0.7l-3.8-0.4L574.2,50.7z M593.8,134H588h-7.4H558l-2.3,0.2l-2.5,0.2l-2.5,0.7l-2,0.9l-1.8,1.1
		l-1.1,1.6l-0.4,2.3l0.4,2.5l1.3,2l2.5,1.6l3.1,1.1l3.8,0.7l4.7,0.5l5.4,0.2h6.3h5.6l5.9-0.2l5.4-0.5l5-0.7l4.5-0.9l3.8-1.4l2.9-1.6
		l1.8-2l0.7-2.3l-0.2-2l-0.4-1.4l-1.1-1.1l-2-0.7l-2.5-0.7l-3.8-0.2H593.8z"/>
	<polygon class="st2" points="705.2,34.5 710.2,34.8 714.9,35.2 719.4,36.3 723.7,37.7 727.7,39.7 731.3,42.2 734.5,45.3 
		737.2,49.2 739.4,53.7 741,59.1 742.1,64.9 742.4,71.9 742.4,132.9 720.5,132.9 720.5,80 720.3,73.5 719.4,67.8 717.8,63.3 
		715.8,59.5 713.1,56.8 709.5,54.8 705.2,53.7 700.1,53.2 694,53.7 688.8,54.6 684.3,55.9 680.5,57.7 677.3,60 674.6,62.2 
		672.1,64.7 669.9,67.2 669.9,132.9 648.1,132.9 648.1,37.7 669.7,37.7 669.7,49.6 672.4,46.9 675.5,44.4 678.9,41.7 682.7,39.5 
		687.2,37.5 692.6,35.9 698.5,34.8 	"/>
	<polygon class="st3" points="705.2,34.5 710.2,34.8 714.9,35.2 719.4,36.3 723.7,37.7 727.7,39.7 731.3,42.2 734.5,45.3 
		737.2,49.2 739.4,53.7 741,59.1 742.1,64.9 742.4,71.9 742.4,132.9 720.5,132.9 720.5,80 720.3,73.5 719.4,67.8 717.8,63.3 
		715.8,59.5 713.1,56.8 709.5,54.8 705.2,53.7 700.1,53.2 694,53.7 688.8,54.6 684.3,55.9 680.5,57.7 677.3,60 674.6,62.2 
		672.1,64.7 669.9,67.2 669.9,132.9 648.1,132.9 648.1,37.7 669.7,37.7 669.7,49.6 672.4,46.9 675.5,44.4 678.9,41.7 682.7,39.5 
		687.2,37.5 692.6,35.9 698.5,34.8 	"/>
	<rect x="481.3" y="1.5" class="st0" width="24.1" height="21.4"/>
	<rect x="481.3" y="1.5" class="st1" width="24.1" height="21.4"/>
</g>
</svg>
